<svg width="100" height="100" viewBox="0 0 100 100" fill="none" xmlns="http://www.w3.org/2000/svg">
  <defs>
    <linearGradient id="vibrant_grad_2" x1="0" y1="100" x2="100" y2="0" gradientUnits="userSpaceOnUse">
      <stop stop-color="#FF3C5F" /> <stop offset="1" stop-color="#FF9D00" /> </linearGradient>
  </defs>

  <rect x="10" y="10" width="80" height="80" rx="20" fill="url(#vibrant_grad_2)" />
  
  <g fill="#FFFFFF">
    <circle cx="50" cy="68" r="7" />
    <path d="M50 24 C 39.5 24 31 32.5 31 43 C 31 47.5 33 51.5 36.5 54.5 L 36.5 58 C 36.5 61.3 39.2 64 42.5 64 L 57.5 64 C 60.8 64 63.5 61.3 63.5 58 L 63.5 54.5 C 67 51.5 69 47.5 69 43 C 69 32.5 60.5 24 50 24 Z M 50 56 L 45 56 L 45 51.5 C 42 49.5 40 46.5 40 43 C 40 37.5 44.5 33 50 33 C 55.5 33 60 37.5 60 43 C 60 48 57 51 53.5 53 L 53.5 56 L 50 56 Z"/>
  </g>
</svg>